<svg width="24" height="24" viewBox="0 0 24 24" fill="none" xmlns="http://www.w3.org/2000/svg">
<path d="M2.68503 12.525L8.26503 15.375C8.43003 15.4575 8.79003 15.66 8.99253 15.33C9.18003 15.0225 8.86503 14.775 8.71503 14.6625L2.22003 9.69C1.74753 9.315 1.64253 8.5875 2.00253 8.0925C2.36253 7.575 3.11253 7.425 3.62253 7.7775L10.2225 12.51C10.3425 12.6 10.6725 12.84 10.9125 12.5625C11.1525 12.3 10.89 12 10.785 11.8875L4.65753 5.4225C4.21503 4.935 4.24503 4.125 4.83753 3.5775C5.31003 3.1425 6.14253 3.1275 6.59253 3.5925L12.615 9.8625C12.705 9.9525 12.9825 10.2375 13.2675 10.0275C13.56 9.8025 13.35 9.4725 13.2975 9.345L9.55503 3.135C9.30003 2.7375 9.29253 1.92 9.98253 1.5075C10.695 1.0875 11.3775 1.5075 11.64 1.95L15.8025 8.64C16.395 9.63 17.325 10.4625 18.15 10.8525C18.7875 11.1525 19.2825 10.77 19.365 10.1025C19.4925 9.0675 19.695 7.785 20.055 6.705C20.43 5.5725 21.75 5.01 22.875 5.58L22.4925 7.0875C22.11 8.6175 22.065 10.2225 22.3275 11.7825C22.5525 13.0875 22.7775 14.7675 22.7475 16.26C22.71 18.51 21.195 19.4925 19.8375 20.715C13.98 26.0325 9.72003 18.8025 7.64253 17.775L1.60503 14.4225C1.09503 14.13 0.982529 13.4475 1.28253 12.9525C1.57503 12.4725 2.17503 12.2625 2.68503 12.525Z" fill="#FFD869"/>
<path d="M21.12 5.55C21.3 5.5875 21.4725 5.64 21.645 5.7225L21.2625 7.23C20.88 8.76 20.835 10.365 21.0975 11.925C21.3225 13.23 21.5475 14.91 21.5175 16.4025C21.48 18.6525 19.965 19.635 18.6075 20.8575C17.4975 21.8625 16.4475 22.4175 15.4575 22.65C16.7925 22.6725 18.255 22.155 19.83 20.7225C21.1875 19.5 22.695 18.5175 22.74 16.2675C22.77 14.7675 22.545 13.0875 22.32 11.79C22.05 10.23 22.1025 8.625 22.485 7.095L22.8675 5.5875C22.29 5.295 21.6525 5.31 21.12 5.55Z" fill="#F2C34E"/>
<path d="M21.1051 11.1825C21.3301 12.4875 21.5551 14.1675 21.5251 15.66C21.4876 17.91 19.9726 18.8925 18.6151 20.115C16.2751 22.2375 14.1901 22.3575 12.3976 21.675C14.4376 22.9125 16.9426 23.355 19.8376 20.7225C21.1951 19.5 22.7026 18.5175 22.7476 16.2675C22.7776 14.7675 22.5526 13.0875 22.3276 11.79C22.0651 10.23 20.8351 9.62249 21.1051 11.1825Z" fill="#F2C34E"/>
<path d="M5.3626 3.7275L12.0376 10.605C12.1276 10.695 12.4051 10.98 12.6901 10.77C12.9826 10.545 12.7726 10.215 12.7201 10.0875L12.4276 9.6L6.5926 3.6C6.1801 3.1725 5.4601 3.15 4.9801 3.4725C5.1226 3.5325 5.2501 3.615 5.3626 3.7275Z" fill="#F2C34E"/>
<path d="M2.33262 7.95749L9.65262 13.2C9.78762 13.2975 10.1551 13.56 10.4176 13.2525C10.6501 13.005 10.4626 12.72 10.3351 12.57L3.69012 7.80749C3.24762 7.49999 2.61762 7.54499 2.18262 7.87499C2.23512 7.90499 2.28762 7.92749 2.33262 7.95749Z" fill="#F2C34E"/>
<path d="M10.4101 2.085L14.5726 8.775C15.1651 9.765 16.0951 10.5975 16.9201 10.9875C17.3626 11.1975 17.7376 11.0625 17.9551 10.74C17.1826 10.32 16.3576 9.555 15.8026 8.64L11.6401 1.95C11.3776 1.5075 10.6951 1.0875 9.98262 1.5075C9.93762 1.53 9.90762 1.56 9.87012 1.59C10.1026 1.7175 10.2976 1.8975 10.4101 2.085Z" fill="#F2C34E"/>
<path d="M7.84507 16.0725C8.03257 16.17 8.46007 16.4025 8.69257 16.02C8.78257 15.87 8.76007 15.7425 8.70757 15.63L2.75257 12.585C2.28007 12.345 1.75507 12.45 1.38757 12.7725L7.84507 16.0725Z" fill="#F2C34E"/>
<path d="M15.5625 23.0325C12.8625 23.0325 10.665 20.9475 9.13502 19.5C8.47502 18.87 7.89752 18.33 7.47752 18.12L1.42502 14.76C1.11002 14.58 0.88502 14.2875 0.79502 13.9275C0.69002 13.5375 0.75752 13.1175 0.96002 12.765C1.35752 12.09 2.16752 11.8425 2.85002 12.1875L8.43002 15.0375C8.49002 15.0675 8.63252 15.135 8.67752 15.135C8.65502 15.1125 8.59502 15.0525 8.48252 14.9625L1.98752 9.99001C1.35002 9.48001 1.22252 8.53501 1.68752 7.87501C1.92002 7.54501 2.28752 7.30501 2.70752 7.23751C3.11252 7.16251 3.51002 7.25251 3.82502 7.47751L10.4325 12.21C10.5675 12.315 10.62 12.3225 10.635 12.3225C10.6275 12.315 10.6125 12.255 10.515 12.15L4.38002 5.68501C3.78002 5.01001 3.86252 3.96751 4.57502 3.30751C5.21252 2.73001 6.27752 2.74501 6.85502 3.33751L12.8775 9.60751C12.9825 9.71251 13.0275 9.72751 13.05 9.73501C13.0425 9.69751 12.99 9.59251 12.975 9.55501L9.22502 3.33751C9.02252 3.03001 8.95502 2.58001 9.05252 2.17501C9.15002 1.76251 9.40502 1.42501 9.78002 1.20001C10.6275 0.697507 11.55 1.09501 11.955 1.77001L16.11 8.46001C16.635 9.33751 17.4975 10.1475 18.3 10.5375C18.4125 10.59 18.585 10.635 18.72 10.56C18.855 10.485 18.9525 10.3125 18.9825 10.0725C19.1025 9.14251 19.2975 7.76251 19.6875 6.60751C19.8975 5.96251 20.385 5.44501 21.0225 5.18251C21.6675 4.92001 22.4025 4.95001 23.04 5.26501C23.1975 5.34751 23.28 5.52001 23.235 5.69251L22.8525 7.20001C22.485 8.67001 22.4325 10.2 22.695 11.7375C23.0025 13.5 23.145 15.03 23.1225 16.29C23.085 18.4125 21.8325 19.5 20.6175 20.5575C20.445 20.7075 20.265 20.865 20.0925 21.0225C18.4725 22.4775 16.95 23.0325 15.5625 23.0325ZM2.21252 12.7875C1.97252 12.7875 1.74752 12.915 1.61252 13.1475V13.155C1.50752 13.3275 1.47752 13.545 1.52252 13.74C1.55252 13.8525 1.62752 14.01 1.79252 14.1075L7.82252 17.46C8.33252 17.7075 8.94002 18.285 9.64502 18.96C12.0375 21.225 15.3075 24.33 19.5825 20.4525C19.7625 20.2875 19.9425 20.1375 20.1225 19.98C21.3075 18.945 22.335 18.06 22.3725 16.2675C22.395 15.06 22.2525 13.575 21.96 11.8575C21.675 10.215 21.735 8.58001 22.125 7.00501L22.425 5.81251C22.0575 5.70001 21.6675 5.71501 21.3075 5.86501C20.8725 6.04501 20.5425 6.39751 20.4 6.83251C20.0325 7.93501 19.8375 9.25501 19.725 10.155C19.665 10.6275 19.4325 11.01 19.0875 11.205C18.765 11.385 18.3675 11.385 17.985 11.205C17.04 10.755 16.08 9.84751 15.48 8.84251L11.3175 2.15251C11.1975 1.95751 10.74 1.49251 10.17 1.83751C9.96752 1.95751 9.84002 2.13001 9.78752 2.34001C9.72752 2.58001 9.78752 2.81251 9.86252 2.93251L13.6125 9.15001C13.9425 9.80251 13.725 10.14 13.4925 10.32C13.29 10.47 12.8775 10.65 12.3525 10.1325L6.32252 3.85501C6.02252 3.55501 5.42252 3.55501 5.09252 3.85501C4.63502 4.28251 4.65002 4.86001 4.93502 5.17501L11.055 11.625C11.5125 12.105 11.4225 12.555 11.1825 12.8175C11.0775 12.9375 10.665 13.32 9.99002 12.81L3.39002 8.08501C3.24002 7.98001 3.04502 7.93501 2.83502 7.97251C2.61752 8.01001 2.42252 8.13001 2.30252 8.30251C2.06252 8.64001 2.13002 9.14251 2.44502 9.39751L8.93252 14.3625C9.53252 14.835 9.46502 15.255 9.30002 15.5175C9.12752 15.8025 8.77502 16.065 8.09252 15.705L2.50502 12.8475C2.41502 12.81 2.31752 12.7875 2.21252 12.7875Z" fill="#455A64"/>
<path d="M5.90256 21.645C3.71256 21.645 1.68006 20.4 0.690059 18.4275C0.600059 18.2475 0.675059 18.0225 0.862559 17.925C1.05006 17.835 1.27506 17.91 1.36506 18.09C2.25006 19.845 4.08756 20.9475 6.05256 20.8875C6.26256 20.895 6.43506 21.045 6.43506 21.255C6.44256 21.465 6.27756 21.6375 6.06756 21.6375C6.01506 21.645 5.96256 21.645 5.90256 21.645Z" fill="#455A64"/>
<path d="M5.86503 19.785C5.85003 19.785 5.84253 19.785 5.82753 19.785C4.38753 19.6425 3.10503 18.8025 2.40753 17.535C2.31003 17.355 2.37003 17.1225 2.55753 17.025C2.73753 16.9275 2.97003 16.9875 3.06753 17.175C3.64503 18.225 4.71003 18.9225 5.90253 19.0425C6.10503 19.065 6.26253 19.245 6.24003 19.455C6.21753 19.6425 6.05253 19.785 5.86503 19.785Z" fill="#455A64"/>
<path d="M18.4726 6.135C18.2851 6.135 18.1201 5.9925 18.0976 5.7975C17.8876 3.8475 16.5451 2.175 14.6851 1.5375C14.4901 1.47 14.3851 1.26 14.4526 1.065C14.5201 0.870003 14.7301 0.765003 14.9251 0.832503C17.0551 1.56 18.5926 3.48 18.8401 5.7225C18.8626 5.925 18.7126 6.1125 18.5101 6.135C18.5026 6.135 18.4876 6.135 18.4726 6.135Z" fill="#455A64"/>
<path d="M16.6501 6.51C16.4701 6.51 16.3051 6.375 16.2826 6.1875C16.1026 5.0025 15.3526 3.975 14.2726 3.45C14.0851 3.36 14.0101 3.135 14.1001 2.9475C14.1901 2.76 14.4151 2.685 14.6026 2.775C15.9001 3.4125 16.8076 4.6425 17.0251 6.075C17.0551 6.2775 16.9126 6.4725 16.7101 6.5025C16.6876 6.5025 16.6726 6.51 16.6501 6.51Z" fill="#455A64"/>
</svg>
