<svg width="84" height="15" viewBox="0 0 111 20" fill="none" xmlns="http://www.w3.org/2000/svg">
<path d="M5.47169 19.7035C4.03169 19.7035 2.91169 19.4395 2.11169 18.9115C1.31169 18.3835 0.759688 17.6315 0.455688 16.6555C0.151688 15.6795 -0.000312418 14.5115 -0.000312418 13.1515V-0.000548363H3.45569V13.5595C3.45569 14.1675 3.49569 14.7435 3.57569 15.2875C3.65569 15.8155 3.83969 16.2475 4.12769 16.5835C4.43169 16.9035 4.87969 17.0635 5.47169 17.0635C6.09569 17.0635 6.54369 16.9035 6.81569 16.5835C7.10369 16.2475 7.28769 15.8155 7.36769 15.2875C7.46369 14.7435 7.51169 14.1675 7.51169 13.5595V-0.000548363H10.9437V13.1515C10.9437 14.5115 10.7917 15.6795 10.4877 16.6555C10.1837 17.6315 9.63169 18.3835 8.83169 18.9115C8.04769 19.4395 6.92769 19.7035 5.47169 19.7035ZM13.7374 19.4395V-0.000548363H18.3934C19.7054 -0.000548363 20.8094 0.159452 21.7054 0.479453C22.6174 0.783453 23.3054 1.31145 23.7694 2.06345C24.2494 2.81545 24.4894 3.83945 24.4894 5.13545C24.4894 5.91945 24.4174 6.62345 24.2734 7.24745C24.1294 7.87145 23.8814 8.40745 23.5294 8.85545C23.1934 9.28745 22.7214 9.62345 22.1134 9.86345L24.8254 19.4395H21.2734L18.9214 10.5355H17.2894V19.4395H13.7374ZM17.2894 8.30345H18.3934C19.0814 8.30345 19.6254 8.20745 20.0254 8.01545C20.4414 7.80745 20.7374 7.48745 20.9134 7.05545C21.0894 6.60745 21.1774 6.03945 21.1774 5.35145C21.1774 4.37545 20.9934 3.64745 20.6254 3.16745C20.2734 2.67145 19.5934 2.42345 18.5854 2.42345H17.2894V8.30345ZM27.1437 19.4395V-0.000548363H31.9197C32.7837 -0.000548363 33.5597 0.079452 34.2477 0.239453C34.9517 0.399453 35.5517 0.671453 36.0477 1.05545C36.5597 1.42345 36.9517 1.92745 37.2237 2.56745C37.4957 3.20745 37.6317 4.01545 37.6317 4.99145C37.6317 5.77545 37.5197 6.44745 37.2957 7.00745C37.0877 7.56745 36.7757 8.01545 36.3597 8.35145C35.9437 8.67145 35.4237 8.88745 34.7997 8.99945C35.5677 9.12745 36.1997 9.39945 36.6957 9.81545C37.2077 10.2155 37.5837 10.7435 37.8237 11.3995C38.0797 12.0555 38.2077 12.8475 38.2077 13.7755C38.2077 14.7035 38.0877 15.5275 37.8477 16.2475C37.6237 16.9515 37.2797 17.5435 36.8157 18.0235C36.3677 18.4875 35.7997 18.8395 35.1117 19.0795C34.4397 19.3195 33.6477 19.4395 32.7357 19.4395H27.1437ZM30.6957 16.9435H32.0397C33.1117 16.9435 33.8397 16.6875 34.2237 16.1755C34.6077 15.6475 34.7997 14.8395 34.7997 13.7515C34.7997 12.9675 34.7037 12.3355 34.5117 11.8555C34.3357 11.3595 34.0317 10.9915 33.5997 10.7515C33.1837 10.5115 32.6237 10.3915 31.9197 10.3915H30.6957V16.9435ZM30.6957 7.94345H31.8957C32.5997 7.94345 33.1437 7.83945 33.5277 7.63145C33.9117 7.42345 34.1757 7.10345 34.3197 6.67145C34.4797 6.23945 34.5597 5.69545 34.5597 5.03945C34.5597 4.35145 34.4397 3.82345 34.1997 3.45545C33.9757 3.07145 33.6317 2.81545 33.1677 2.68745C32.7037 2.54345 32.1117 2.47145 31.3917 2.47145H30.6957V7.94345ZM39.4956 19.4395L43.3836 -0.000548363H47.1756L51.0636 19.4395H47.7756L47.0076 14.9515H43.6236L42.8316 19.4395H39.4956ZM43.9836 12.6955H46.6236L45.3036 4.53545L43.9836 12.6955ZM52.9249 19.4395V-0.000548363H55.3969L60.1249 11.0875V-0.000548363H63.0529V19.4395H60.7009L55.9489 7.82345V19.4395H52.9249ZM71.887 19.4395V-0.000548363H75.415V8.13545H79.375V-0.000548363H82.927V19.4395H79.375V10.6555H75.415V19.4395H71.887ZM91.2295 19.7035C89.7895 19.7035 88.6695 19.4395 87.8695 18.9115C87.0695 18.3835 86.5175 17.6315 86.2135 16.6555C85.9095 15.6795 85.7575 14.5115 85.7575 13.1515V-0.000548363H89.2135V13.5595C89.2135 14.1675 89.2535 14.7435 89.3335 15.2875C89.4135 15.8155 89.5975 16.2475 89.8855 16.5835C90.1895 16.9035 90.6375 17.0635 91.2295 17.0635C91.8535 17.0635 92.3015 16.9035 92.5735 16.5835C92.8615 16.2475 93.0455 15.8155 93.1255 15.2875C93.2215 14.7435 93.2695 14.1675 93.2695 13.5595V-0.000548363H96.7015V13.1515C96.7015 14.5115 96.5495 15.6795 96.2455 16.6555C95.9415 17.6315 95.3895 18.3835 94.5895 18.9115C93.8055 19.4395 92.6855 19.7035 91.2295 19.7035ZM99.4953 19.4395V-0.000548363H104.271C105.135 -0.000548363 105.911 0.079452 106.599 0.239453C107.303 0.399453 107.903 0.671453 108.399 1.05545C108.911 1.42345 109.303 1.92745 109.575 2.56745C109.847 3.20745 109.983 4.01545 109.983 4.99145C109.983 5.77545 109.871 6.44745 109.647 7.00745C109.439 7.56745 109.127 8.01545 108.711 8.35145C108.295 8.67145 107.775 8.88745 107.151 8.99945C107.919 9.12745 108.551 9.39945 109.047 9.81545C109.559 10.2155 109.935 10.7435 110.175 11.3995C110.431 12.0555 110.559 12.8475 110.559 13.7755C110.559 14.7035 110.439 15.5275 110.199 16.2475C109.975 16.9515 109.631 17.5435 109.167 18.0235C108.719 18.4875 108.151 18.8395 107.463 19.0795C106.791 19.3195 105.999 19.4395 105.087 19.4395H99.4953ZM103.047 16.9435H104.391C105.463 16.9435 106.191 16.6875 106.575 16.1755C106.959 15.6475 107.151 14.8395 107.151 13.7515C107.151 12.9675 107.055 12.3355 106.863 11.8555C106.687 11.3595 106.383 10.9915 105.951 10.7515C105.535 10.5115 104.975 10.3915 104.271 10.3915H103.047V16.9435ZM103.047 7.94345H104.247C104.951 7.94345 105.495 7.83945 105.879 7.63145C106.263 7.42345 106.527 7.10345 106.671 6.67145C106.831 6.23945 106.911 5.69545 106.911 5.03945C106.911 4.35145 106.791 3.82345 106.551 3.45545C106.327 3.07145 105.983 2.81545 105.519 2.68745C105.055 2.54345 104.463 2.47145 103.743 2.47145H103.047V7.94345Z" fill="white"/>
</svg>
