<svg width="90" height="16" viewBox="0 0 90 16" fill="none" xmlns="http://www.w3.org/2000/svg">
<g clip-path="url(#clip0_19_616)">
<path d="M4.77738 15.7628C3.62538 15.7628 2.72938 15.5516 2.08938 15.1292C1.44938 14.7068 1.00778 14.1052 0.764581 13.3244C0.521381 12.5436 0.39978 11.6092 0.39978 10.5212V-0.00043869H3.16458V10.8476C3.16458 11.334 3.19658 11.7948 3.26058 12.23C3.32458 12.6524 3.47178 12.998 3.70218 13.2668C3.94538 13.5228 4.30378 13.6508 4.77738 13.6508C5.27658 13.6508 5.63498 13.5228 5.85258 13.2668C6.08298 12.998 6.23018 12.6524 6.29418 12.23C6.37098 11.7948 6.40938 11.334 6.40938 10.8476V-0.00043869H9.15499V10.5212C9.15499 11.6092 9.03339 12.5436 8.79019 13.3244C8.54699 14.1052 8.10538 14.7068 7.46538 15.1292C6.83818 15.5516 5.94218 15.7628 4.77738 15.7628ZM11.39 15.5516V-0.00043869H15.1148C16.1644 -0.00043869 17.0476 0.127562 17.7644 0.383562C18.494 0.626762 19.0444 1.04916 19.4156 1.65076C19.7996 2.25236 19.9916 3.07156 19.9916 4.10836C19.9916 4.73556 19.934 5.29876 19.8188 5.79796C19.7036 6.29716 19.5052 6.72596 19.2236 7.08436C18.9548 7.42996 18.5772 7.69876 18.0908 7.89076L20.2604 15.5516H17.4188L15.5372 8.4284H14.2316V15.5516H11.39ZM14.2316 6.64276H15.1148C15.6652 6.64276 16.1004 6.56596 16.4204 6.41236C16.7532 6.24596 16.99 5.98996 17.1308 5.64436C17.2716 5.28596 17.342 4.83156 17.342 4.28116C17.342 3.50036 17.1948 2.91796 16.9004 2.53396C16.6188 2.13716 16.0748 1.93876 15.2684 1.93876H14.2316V6.64276ZM22.115 15.5516V-0.00043869H25.9358C26.627 -0.00043869 27.2478 0.0635616 27.7982 0.191562C28.3614 0.319562 28.8414 0.537162 29.2382 0.84436C29.6478 1.13876 29.9614 1.54196 30.179 2.05396C30.3966 2.56596 30.5054 3.21236 30.5054 3.99316C30.5054 4.62036 30.4158 5.15796 30.2366 5.60596C30.0702 6.05396 29.8206 6.41236 29.4878 6.68116C29.155 6.93716 28.739 7.10996 28.2398 7.19956C28.8542 7.30196 29.3598 7.51956 29.7566 7.85236C30.1662 8.1724 30.467 8.5948 30.659 9.1196C30.8638 9.6444 30.9662 10.278 30.9662 11.0204C30.9662 11.7628 30.8702 12.422 30.6782 12.998C30.499 13.5612 30.2238 14.0348 29.8526 14.4188C29.4942 14.79 29.0398 15.0716 28.4894 15.2636C27.9518 15.4556 27.3182 15.5516 26.5886 15.5516H22.115ZM24.9566 13.5548H26.0318C26.8894 13.5548 27.4718 13.35 27.779 12.9404C28.0862 12.518 28.2398 11.8716 28.2398 11.0012C28.2398 10.374 28.163 9.8684 28.0094 9.4844C27.8686 9.0876 27.6254 8.7932 27.2798 8.6012C26.947 8.4092 26.499 8.3132 25.9358 8.3132H24.9566V13.5548ZM24.9566 6.35476H25.9166C26.4798 6.35476 26.915 6.27156 27.2222 6.10516C27.5294 5.93876 27.7406 5.68276 27.8558 5.33716C27.9838 4.99156 28.0478 4.55636 28.0478 4.03156C28.0478 3.48116 27.9518 3.05876 27.7598 2.76436C27.5806 2.45716 27.3054 2.25236 26.9342 2.14996C26.563 2.03476 26.0894 1.97716 25.5134 1.97716H24.9566V6.35476ZM31.9965 15.5516L35.1069 -0.00043869H38.1405L41.2509 15.5516H38.6205L38.0061 11.9612H35.2989L34.6653 15.5516H31.9965ZM35.5869 10.1564H37.6989L36.6429 3.62836L35.5869 10.1564ZM42.74 15.5516V-0.00043869H44.7176L48.5 8.87V-0.00043869H50.8424V15.5516H48.9608L45.1592 6.25876V15.5516H42.74ZM57.9096 15.5516V-0.00043869H60.732V6.50836H63.9V-0.00043869H66.7416V15.5516H63.9V8.5244H60.732V15.5516H57.9096ZM73.3836 15.7628C72.2316 15.7628 71.3356 15.5516 70.6956 15.1292C70.0556 14.7068 69.614 14.1052 69.3708 13.3244C69.1276 12.5436 69.006 11.6092 69.006 10.5212V-0.00043869H71.7708V10.8476C71.7708 11.334 71.8028 11.7948 71.8668 12.23C71.9308 12.6524 72.078 12.998 72.3084 13.2668C72.5516 13.5228 72.91 13.6508 73.3836 13.6508C73.8828 13.6508 74.2412 13.5228 74.4588 13.2668C74.6892 12.998 74.8364 12.6524 74.9004 12.23C74.9772 11.7948 75.0156 11.334 75.0156 10.8476V-0.00043869H77.7612V10.5212C77.7612 11.6092 77.6396 12.5436 77.3964 13.3244C77.1532 14.1052 76.7116 14.7068 76.0716 15.1292C75.4444 15.5516 74.5484 15.7628 73.3836 15.7628ZM79.9963 15.5516V-0.00043869H83.8168C84.508 -0.00043869 85.1288 0.0635616 85.6792 0.191562C86.2424 0.319562 86.7224 0.537162 87.1192 0.84436C87.5288 1.13876 87.8424 1.54196 88.06 2.05396C88.2776 2.56596 88.3864 3.21236 88.3864 3.99316C88.3864 4.62036 88.2968 5.15796 88.1176 5.60596C87.9512 6.05396 87.7016 6.41236 87.3688 6.68116C87.036 6.93716 86.62 7.10996 86.1208 7.19956C86.7352 7.30196 87.2408 7.51956 87.6376 7.85236C88.0472 8.1724 88.348 8.5948 88.54 9.1196C88.7448 9.6444 88.8472 10.278 88.8472 11.0204C88.8472 11.7628 88.7512 12.422 88.5592 12.998C88.38 13.5612 88.1048 14.0348 87.7336 14.4188C87.3752 14.79 86.9208 15.0716 86.3704 15.2636C85.8328 15.4556 85.1992 15.5516 84.4696 15.5516H79.9963ZM82.8376 13.5548H83.9128C84.7704 13.5548 85.3528 13.35 85.66 12.9404C85.9672 12.518 86.1208 11.8716 86.1208 11.0012C86.1208 10.374 86.044 9.8684 85.8904 9.4844C85.7496 9.0876 85.5064 8.7932 85.1608 8.6012C84.828 8.4092 84.38 8.3132 83.8168 8.3132H82.8376V13.5548ZM82.8376 6.35476H83.7976C84.3608 6.35476 84.796 6.27156 85.1032 6.10516C85.4104 5.93876 85.6216 5.68276 85.7368 5.33716C85.8648 4.99156 85.9288 4.55636 85.9288 4.03156C85.9288 3.48116 85.8328 3.05876 85.6408 2.76436C85.4616 2.45716 85.1864 2.25236 84.8152 2.14996C84.444 2.03476 83.9704 1.97716 83.3944 1.97716H82.8376V6.35476Z" fill="#08363A"/>
</g>
<defs>
<clipPath id="clip0_19_616">
<rect width="89.6" height="16" fill="white"/>
</clipPath>
</defs>
</svg>
